<?xml version="1.0" encoding="UTF-8" standalone="no"?>
<svg
   xmlns:dc="http://purl.org/dc/elements/1.1/"
   xmlns:cc="http://creativecommons.org/ns#"
   xmlns:rdf="http://www.w3.org/1999/02/22-rdf-syntax-ns#"
   xmlns:svg="http://www.w3.org/2000/svg"
   xmlns="http://www.w3.org/2000/svg"
   xmlns:sodipodi="http://sodipodi.sourceforge.net/DTD/sodipodi-0.dtd"
   xmlns:inkscape="http://www.inkscape.org/namespaces/inkscape"
   id="Bold"
   enable-background="new 0 0 24 24"
   height="512"
   viewBox="0 0 24 24"
   width="512"
   version="1.1"
   sodipodi:docname="instagram-white.svg"
   inkscape:version="1.0.1 (3bc2e813f5, 2020-09-07)">
  <metadata
     id="metadata86">
    <rdf:RDF>
      <cc:Work
         rdf:about="">
        <dc:format>image/svg+xml</dc:format>
        <dc:type
           rdf:resource="http://purl.org/dc/dcmitype/StillImage" />
        <dc:title></dc:title>
      </cc:Work>
    </rdf:RDF>
  </metadata>
  <defs
     id="defs84" />
  <sodipodi:namedview
     pagecolor="#ffffff"
     bordercolor="#666666"
     borderopacity="1"
     objecttolerance="10"
     gridtolerance="10"
     guidetolerance="10"
     inkscape:pageopacity="0"
     inkscape:pageshadow="2"
     inkscape:window-width="1848"
     inkscape:window-height="1002"
     id="namedview82"
     showgrid="false"
     inkscape:zoom="1.5996094"
     inkscape:cx="256"
     inkscape:cy="255.37485"
     inkscape:window-x="72"
     inkscape:window-y="41"
     inkscape:window-maximized="1"
     inkscape:current-layer="Bold" />
  <path
     d="m12.004 5.838c-3.403 0-6.158 2.758-6.158 6.158 0 3.403 2.758 6.158 6.158 6.158 3.403 0 6.158-2.758 6.158-6.158 0-3.403-2.758-6.158-6.158-6.158zm0 10.155c-2.209 0-3.997-1.789-3.997-3.997s1.789-3.997 3.997-3.997 3.997 1.789 3.997 3.997c.001 2.208-1.788 3.997-3.997 3.997z"
     id="path75" />
  <path
     d="m16.948.076c-2.208-.103-7.677-.098-9.887 0-1.942.091-3.655.56-5.036 1.941-2.308 2.308-2.013 5.418-2.013 9.979 0 4.668-.26 7.706 2.013 9.979 2.317 2.316 5.472 2.013 9.979 2.013 4.624 0 6.22.003 7.855-.63 2.223-.863 3.901-2.85 4.065-6.419.104-2.209.098-7.677 0-9.887-.198-4.213-2.459-6.768-6.976-6.976zm3.495 20.372c-1.513 1.513-3.612 1.378-8.468 1.378-5 0-7.005.074-8.468-1.393-1.685-1.677-1.38-4.37-1.38-8.453 0-5.525-.567-9.504 4.978-9.788 1.274-.045 1.649-.06 4.856-.06l.045.03c5.329 0 9.51-.558 9.761 4.986.057 1.265.07 1.645.07 4.847-.001 4.942.093 6.959-1.394 8.453z"
     id="path77" />
  <circle
     cx="18.406"
     cy="5.595"
     r="1.439"
     id="circle79" />
  <path
     style="fill:#ffffff;stroke-width:0.625153"
     d="M 168.16606,511.27402 C 107.97243,508.95596 73.437835,497.38851 45.410339,470.15669 33.582735,458.66486 25.67204,447.94321 19.087995,434.48107 9.0762984,414.01055 4.2993446,393.22683 1.486488,357.89988 0.49863655,345.49336 0.01253656,186.28354 0.90051141,165.97802 2.6768689,125.35765 7.6629883,100.77924 18.719016,78.144078 25.206415,64.862336 32.841425,54.129511 43.232775,43.684151 68.547942,18.237409 100.40568,5.3485957 145.68418,2.2349708 c 28.82565,-1.98222631 164.75292,-2.424706 206.9019,-0.6735211 34.2195,1.4217347 56.21677,5.7642932 77.90161,15.3788333 27.66247,12.264879 47.73155,31.352477 61.39304,58.390608 10.36393,20.511789 16.10662,43.446899 17.92277,71.579979 2.39507,37.10079 2.39129,182.06645 -0.006,218.17826 -2.48634,37.45791 -12.66074,67.86103 -30.69494,91.7226 -5.01794,6.63937 -16.2769,17.89833 -22.91628,22.91627 -18.00234,13.6059 -40.02854,22.74332 -64.84103,26.89886 -17.58474,2.94507 -30.32551,3.74097 -70.95482,4.43253 -29.99707,0.51059 -140.49394,0.66637 -152.22466,0.21463 z m 187.85836,-46.41361 c 29.72568,-2.308 44.77298,-5.71282 60.01465,-13.57978 23.03375,-11.88884 38.21344,-32.77938 44.31299,-60.98425 1.92331,-8.89358 3.00365,-16.78707 4.26283,-31.1462 1.01551,-11.58057 1.12382,-21.28025 1.12382,-100.64957 0,-89.91931 -0.33749,-106.19433 -2.55328,-123.13037 -6.66194,-50.919528 -31.94156,-76.924457 -83.26408,-85.653031 -21.26353,-3.616353 -39.70872,-4.258069 -124.5465,-4.33302 -68.85828,-0.06083 -102.65778,0.567072 -116.90354,2.171763 -49.565442,5.583216 -76.342192,27.049231 -86.894255,69.660168 -3.435768,13.87418 -5.220351,28.16744 -6.205246,49.69963 -0.820871,17.94623 -0.834898,168.28533 -0.01715,183.79487 2.525341,47.89595 13.394325,74.44597 38.103214,93.07598 19.536107,14.72984 42.564427,20.07823 93.147747,21.63382 23.98447,0.73759 168.51659,0.28648 179.4188,-0.56001 z"
     id="path90"
     transform="scale(0.046875)" />
  <path
     style="fill:#ffffff;stroke-width:0.625153"
     d="m 248.18559,386.57248 c -55.87751,-2.95697 -104.78923,-43.19765 -118.81553,-97.75197 -1.14923,-4.46984 -2.52543,-11.30149 -3.05823,-15.18144 -1.11981,-8.15467 -1.28179,-25.4636 -0.31148,-33.28428 6.07414,-48.95767 38.96184,-90.46667 85.13348,-107.45069 48.81523,-17.95645 104.06249,-4.97385 139.88686,32.87213 24.33367,25.70684 37.84961,61.65909 35.99103,95.73571 -2.32501,42.62846 -23.37528,79.86112 -58.44245,103.37005 -23.66991,15.86825 -51.00784,23.24504 -80.38368,21.69049 z m 24.79966,-46.82365 c 33.28302,-6.78265 58.79121,-31.73022 66.63057,-65.16618 1.44657,-6.16982 1.64887,-8.37636 1.67503,-18.27007 0.0318,-12.04162 -0.62012,-16.63221 -3.80654,-26.80327 -7.99667,-25.52528 -29.46834,-46.99695 -54.99362,-54.99361 -9.99937,-3.13265 -14.80384,-3.82721 -26.49069,-3.82967 -9.1578,-0.002 -12.00132,0.23386 -17.4535,1.44726 -34.1535,7.60097 -59.19186,32.93471 -66.39904,67.18238 -1.73778,8.25774 -1.90763,23.01121 -0.36218,31.46024 5.54827,30.3326 26.92887,55.6703 55.4577,65.72173 14.49592,5.10728 30.90953,6.2739 45.74227,3.25119 z"
     id="path92"
     transform="scale(0.046875)" />
  <path
     style="fill:#ffffff;stroke-width:0.625153"
     d="m 385.61625,148.8347 c -13.22322,-3.20692 -23.3403,-15.96388 -23.3403,-29.43055 0,-10.44012 6.82213,-21.83962 15.98819,-26.715614 11.92451,-6.343384 26.03798,-4.20426 35.64478,5.402541 7.76353,7.763533 10.74649,18.434863 8.04853,28.793053 -1.38973,5.33551 -3.83379,9.50757 -8.10072,13.82806 -7.3724,7.46495 -18.15918,10.56744 -28.24048,8.12251 z"
     id="path94"
     transform="scale(0.046875)" />
</svg>
